<?xml version="1.0" encoding="UTF-8" standalone="no"?> <svg id="Layer_1" data-name="Layer 1" xmlns="http://www.w3.org/2000/svg" viewBox="0 0 128 128"><defs><style>.cls-1{fill:#2d3e50;}.cls-2{fill:#2e79bd;}</style></defs><title>b</title><path class="cls-1" d="M71.56247,100.46381H56.47267a2.2196,2.2196,0,1,1,0-4.43919H69.64475a4.24187,4.24187,0,0,1,.66409.85942V88.54719a2.33031,2.33031,0,0,0-2.33149-2.32972H40.52879a2.33031,2.33031,0,0,0-2.33145,2.32972V96.884a4.28047,4.28047,0,0,0-.52028,1.417l-7.378,21.76813a4.2679,4.2679,0,0,0,4.20306,5.00743H74.00228a4.27,4.27,0,0,0,4.2048-5.00743Z"/><path class="cls-2" d="M97.72971,6.47151c-.15416-1.63409-.72762-2.7255-1.72039-3.24349-.98663-.518-2.20755-.37614-3.63815.43165a9.59421,9.59421,0,0,0-2.58986,2.14587c-1.98554,2.28772-4.13758,4.92689-6.376,7.78807v.00617l-.148,8.05939a1.81135,1.81135,0,0,1-1.52927,1.76356,1.786,1.786,0,0,1-1.13458-.185,1.84506,1.84506,0,0,1-.87561-1.01129l-.91264-2.61451C74.125,25.85842,69.32146,32.61669,65.09137,38.709l-.22815,12.99244a1.82438,1.82438,0,0,1-2.67,1.58475,1.81115,1.81115,0,0,1-.87561-1.01742l-1.78208-5.11808c-.11716.222-.23432.43782-.35148.6598-3.63811,6.93094-4.59388,13.37475-3.20032,21.53282A5.93213,5.93213,0,0,0,56.884,71.631L51.40213,82.08294h6.51163l4.076-7.77572a5.85046,5.85046,0,0,0,2.3925-.555c7.50444-3.49629,12.25865-7.9484,15.8968-14.87934a42.9909,42.9909,0,0,0,2.0657-4.58157c1.21478-3.18181,2.522-6.64728,3.854-10.26694l-3.6258-.06165a1.82257,1.82257,0,0,1-1.76973-1.53541,1.82121,1.82121,0,0,1,1.20244-2.01023l6.302-2.189c3.60111-10.02027,7.0974-20.4722,9.12615-28.40825A9.80872,9.80872,0,0,0,97.72971,6.47151Z"/></svg>