<?xml version="1.0" encoding="utf-8"?>
<!-- Generator: Adobe Illustrator 24.1.0, SVG Export Plug-In . SVG Version: 6.00 Build 0)  -->
<svg version="1.1" id="_x30_1_Sculpture" xmlns="http://www.w3.org/2000/svg" xmlns:xlink="http://www.w3.org/1999/xlink" x="0px"
	 y="0px" viewBox="0 0 48 48" style="enable-background:new 0 0 48 48;" xml:space="preserve">
<style type="text/css">
	.st0{fill:#F2D6AD;}
	.st1{fill:#FCF6F2;}
	.st2{fill:#BC9C73;}
	.st3{fill:#CCB9AE;}
	.st4{fill:#474747;}
</style>
<path class="st0" d="M25,25v6l-6,12H9L3,31v-6c0-2.2,1.8-4,4-4h14C23.2,21,25,22.8,25,25z M14,6c-3.3,0-6,2.7-6,6c0,5,3,9,6,9
	s6-4,6-9C20,8.7,17.3,6,14,6z"/>
<path class="st1" d="M7,39l-4-8v-6c0-2.2,1.8-4,4-4h7h7c1.1,0,2.1,0.4,2.8,1.2L7,39z M20,12c0-3.3-2.7-6-6-6s-6,2.7-6,6c0,5,3,9,6,9
	S20,17,20,12z"/>
<polygon class="st2" points="15.2,33.6 11,35 12.4,30.8 24.4,18.7 27.3,21.6 "/>
<polygon class="st3" points="25.8,20.2 24.4,18.7 12.4,30.8 11,35 11,35 "/>
<polygon class="st2" points="46,23 37.5,14.5 41.1,11 35.4,5.3 25.5,15.2 31.2,20.9 34.7,17.3 43.2,25.8 "/>
<rect x="24.8" y="9.7" transform="matrix(0.7071 -0.7071 0.7071 0.7071 1.106 25.8565)" class="st3" width="14" height="3.7"/>
<path class="st4" d="M29.4,23.7c0.4-0.4,0.4-1,0-1.4l-5.7-5.7c-0.4-0.4-1-0.4-1.4,0c-0.4,0.4-0.4,1,0,1.4l0.7,0.7l-1.3,1.3
	C21.5,20,21.2,20,21,20h-2.9c1.8-1.9,2.9-4.8,2.9-8c0-3.9-3.1-7-7-7s-7,3.1-7,7c0,3.2,1.2,6.1,2.9,8H7c-2.8,0-5,2.2-5,5v6
	c0,0.2,0,0.3,0.1,0.4l6,12C8.3,43.8,8.6,44,9,44h10c0.4,0,0.7-0.2,0.9-0.6l6-12C26,31.3,26,31.2,26,31v-6c0-0.2,0-0.5-0.1-0.7
	l1.3-1.3l0.7,0.7C28.4,24.1,29,24.1,29.4,23.7z M24.4,20.2l1.4,1.4L14.7,32.7l-2.1,0.7l0.7-2.1L24.4,20.2z M9,12c0-2.8,2.2-5,5-5
	s5,2.2,5,5c0,4.5-2.7,8-5,8S9,16.5,9,12z M24,30.8L18.4,42H9.6L4,30.8V25c0-1.7,1.3-3,3-3h12.8l-8.1,8.1c-0.1,0.1-0.2,0.2-0.2,0.4
	l-1.4,4.2c-0.1,0.4,0,0.8,0.2,1s0.7,0.4,1,0.2l4.2-1.4c0.1,0,0.3-0.1,0.4-0.2l8-8.1V30.8z M46.7,22.3l-7.8-7.8l2.8-2.8
	c0.4-0.4,0.4-1,0-1.4l-5.7-5.7c-0.4-0.4-1-0.4-1.4,0l-9.9,9.9c-0.4,0.4-0.4,1,0,1.4l5.7,5.7c0.4,0.4,1,0.4,1.4,0l2.8-2.8l7.8,7.8
	c0.4,0.4,1,0.4,1.4,0l2.8-2.8C47.1,23.3,47.1,22.7,46.7,22.3z M31.2,19.5l-4.2-4.2l8.5-8.5l4.2,4.2L31.2,19.5z M43.2,24.4l-7.1-7.1
	l1.4-1.4l7.1,7.1L43.2,24.4z M30,31c0,0.6-0.4,1-1,1c-0.6,0-1-0.4-1-1s0.4-1,1-1C29.6,30,30,30.4,30,31z M33,36c0,0.6-0.4,1-1,1
	c-0.6,0-1-0.4-1-1s0.4-1,1-1C32.6,35,33,35.4,33,36z M31,28c-0.6,0-1-0.4-1-1s0.4-1,1-1c0.6,0,1,0.4,1,1S31.6,28,31,28z"/>
</svg>
